<svg width="64" height="167" viewBox="0 0 64 167" fill="none" xmlns="http://www.w3.org/2000/svg">
<path d="M60.7968 161.274L64.6571 160.688L62.5977 147.117C84.5362 142.863 97.3055 126.98 94.4682 108.282C92.1618 93.082 80.9353 84.9744 58.5858 81.6399L52.5208 80.7091L43.8625 23.6499C62.2299 21.4799 75.9756 31.55 79.6202 47.8424L83.4804 47.2566C79.446 28.802 63.7644 17.3596 43.2768 19.7897L41.2266 6.27884L37.3664 6.8646L39.4257 20.4358C19.7372 24.4723 7.33522 39.9293 9.98945 57.421C12.1586 71.716 23.2079 80.2824 43.5541 83.4272L49.1091 84.2503L58.1609 143.903C38.5361 146.326 24.3428 137.372 20.766 121.934L16.9058 122.519C20.8121 140.13 36.9504 150.515 58.7467 147.763L60.7968 161.274ZM62.012 143.257L53.1523 84.8709L58.2065 85.6466C79.1138 88.8297 88.5945 95.5979 90.608 108.867C93.1616 125.696 81.7882 139.392 62.012 143.257ZM48.4775 80.0885L43.9334 79.4205C25.3767 76.6829 15.7534 69.3811 13.8497 56.8353C11.4975 41.334 22.5456 27.9336 40.0115 24.296L48.4775 80.0885Z" fill="white" fill-opacity="0.05"/>
</svg>
