<svg width="152" height="150" viewBox="0 0 152 150" fill="none" xmlns="http://www.w3.org/2000/svg">
<path d="M31.4827 126.635L34.7458 128.779L42.2834 117.308C61.4466 128.804 81.5602 125.522 91.9453 109.717C100.387 96.8685 97.4544 83.3347 83.057 65.9181L79.1674 61.1725L110.859 12.9401C125.972 23.6006 129.468 40.2778 121.291 54.8334L124.554 56.9774C133.886 40.5529 129.868 21.561 113.003 9.67698L120.507 -1.74381L117.244 -3.88784L109.706 7.58394C92.3625 -2.57096 72.8068 0.63926 63.0917 15.4251C55.1521 27.5087 57.6467 41.2654 70.6806 57.2021L74.2628 61.5267L41.1308 111.952C24.913 100.639 20.338 84.493 27.995 70.6177L24.7319 68.4737C15.8689 84.1844 20.9335 102.696 38.9868 115.215L31.4827 126.635ZM44.4274 114.045L76.8559 64.6905L80.0972 68.6452C93.5229 84.9853 96.0524 96.356 88.6823 107.573C79.3356 121.798 61.7217 124.386 44.4274 114.045ZM76.5743 58.0087L73.6404 54.475C61.6656 40.0372 59.3867 28.1741 66.3548 17.5691C74.9644 4.46582 92.1385 1.88065 107.562 10.847L76.5743 58.0087Z" fill="white" fill-opacity="0.05"/>
</svg>
