<svg width="160" height="167" viewBox="0 0 160 167" fill="none" xmlns="http://www.w3.org/2000/svg">
<path d="M55.6056 24.497C47.599 36.6825 49.6493 49.7823 59.3366 56.1474C69.0238 62.5125 81.8613 59.1949 89.8679 47.0093L92.012 43.7462C100.019 31.5606 97.9682 18.4609 88.281 12.0958C78.5937 5.7307 65.7562 9.04832 57.7496 21.2339L55.6056 24.497ZM67.9058 123.096C59.8992 135.281 61.9495 148.381 71.6368 154.746C81.3241 161.111 94.1615 157.794 102.168 145.608L104.312 142.345C112.319 130.159 110.268 117.06 100.581 110.694C90.8939 104.329 78.0565 107.647 70.0498 119.833L67.9058 123.096ZM73.3129 121.977C80.147 111.576 90.6364 108.832 98.4372 113.958C106.238 119.083 107.883 129.8 101.049 140.201L98.9051 143.464C92.071 153.865 81.5816 156.609 73.7808 151.483C65.98 146.357 64.3348 135.641 71.1689 125.24L73.3129 121.977ZM61.0127 23.3779C67.8468 12.9768 78.3361 10.2333 86.1369 15.3589C93.9377 20.4844 95.583 31.2011 88.7489 41.6022L86.6048 44.8653C79.7707 55.2663 69.2814 58.0099 61.4806 52.8843C53.6798 47.7587 52.0346 37.0421 58.8687 26.641L61.0127 23.3779ZM7.92502 110.84L11.7999 113.386L151.993 56.002L148.118 53.456L7.92502 110.84Z" fill="white" fill-opacity="0.05"/>
</svg>
