<svg width="134" height="188" viewBox="0 0 134 188" fill="none" xmlns="http://www.w3.org/2000/svg">
<path d="M96.7165 19.6862L92.2298 16.7382L60.8938 16.8799L58.3477 20.7548L90.5636 20.6072L91.1754 21.0092L24.8444 121.961L28.1075 124.105L96.7165 19.6862ZM90.0255 166.832C109.91 179.898 135.445 167.476 157.287 134.234C179.129 100.991 180.395 72.6238 160.51 59.5586C140.626 46.4934 115.091 58.9145 93.249 92.1572C71.4067 125.4 70.1411 153.767 90.0255 166.832ZM92.1695 163.569C74.3755 151.878 75.8758 125.708 96.5121 94.3012C117.148 62.8941 140.572 51.13 158.366 62.8217C176.16 74.5133 174.66 100.683 154.024 132.09C133.388 163.497 109.963 175.261 92.1695 163.569Z" fill="white" fill-opacity="0.05"/>
</svg>
