<svg width="164" height="150" viewBox="0 0 164 150" fill="none" xmlns="http://www.w3.org/2000/svg">
<path d="M32.0211 19.5574L26.7132 20.3628L3.49721 41.4099L4.1928 45.9939L28.0594 24.3545L28.7832 24.2446L46.9052 143.671L50.7654 143.085L32.0211 19.5574ZM125.381 133.49C148.904 129.921 159.598 103.616 153.631 64.29C147.663 24.9638 129.647 3.01564 106.124 6.58513C82.6004 10.1546 71.9061 36.4594 77.8736 75.7856C83.841 115.112 101.857 137.06 125.381 133.49ZM124.795 129.63C103.744 132.824 87.3717 112.355 81.7338 75.1998C76.0958 38.045 85.6591 13.6396 106.709 10.4454C127.76 7.25113 144.133 27.721 149.771 64.8758C155.408 102.031 145.845 126.436 124.795 129.63Z" fill="white" fill-opacity="0.05"/>
</svg>
