<svg width="220" height="207" viewBox="0 0 220 207" fill="none" xmlns="http://www.w3.org/2000/svg">
<path d="M71.4273 205.161L133.902 162.939L131.716 159.704L74.2957 198.51L74.0224 198.106L80.0937 141.282C83.274 111.668 82.7114 100.267 74.957 88.7932C64.5724 73.4272 45.396 69.8934 29.8278 80.4147C13.6531 91.3459 10.6316 111.28 20.7772 126.293L24.0121 124.106C15.0963 110.914 17.659 93.3511 32.0141 83.6496C45.7626 74.3581 62.5672 77.4331 71.7221 90.9795C78.6907 101.291 79.435 111.98 76.301 140.9L69.651 202.533L71.4273 205.161ZM188.188 128.314C207.901 114.991 206.267 86.6427 183.995 53.6866C161.723 20.7305 136.029 8.64215 116.316 21.9646C96.6027 35.287 98.2367 63.6355 120.509 96.5916C142.781 129.548 168.475 141.636 188.188 128.314ZM186.002 125.079C168.362 137.001 144.787 125.542 123.744 94.4053C102.701 63.2689 100.861 37.1214 118.502 25.1995C136.142 13.2777 159.717 24.7364 180.76 55.8728C201.803 87.0092 203.643 113.157 186.002 125.079Z" fill="white" fill-opacity="0.05"/>
</svg>
