<svg width="195" height="153" viewBox="0 0 195 153" fill="none" xmlns="http://www.w3.org/2000/svg">
<path d="M0.364706 126.057L75.0563 136.4L75.5918 132.532L6.94327 123.026L7.01022 122.543L49.5016 84.3293C71.6584 64.4248 78.859 55.5677 80.7586 41.8501C83.3025 23.4794 71.3989 8.03508 52.7864 5.45769C33.4488 2.77988 17.879 15.5899 15.3937 33.5376L19.2612 34.0732C21.4453 18.301 35.0887 6.94865 52.2509 9.32521C68.6879 11.6013 79.1337 25.1193 76.891 41.3145C75.1839 53.6423 68.5941 62.0912 46.9357 81.5104L0.79985 122.915L0.364706 126.057ZM138.58 146.921C162.147 150.185 179.877 128.004 185.333 88.6038C190.789 49.2034 179.754 23.0398 156.186 19.7762C132.619 16.5126 114.889 38.693 109.433 78.0934C103.977 117.494 115.012 143.657 138.58 146.921ZM139.115 143.053C118.025 140.133 108.146 115.854 113.3 78.629C118.455 41.404 134.561 20.7232 155.651 23.6437C176.741 26.5642 186.62 50.8433 181.466 88.0682C176.311 125.293 160.205 145.974 139.115 143.053Z" fill="white" fill-opacity="0.05"/>
</svg>
