<svg xmlns="http://www.w3.org/2000/svg" width="69" height="68" fill="none" style=""><rect id="backgroundrect" width="100%" height="100%" x="0" y="0" fill="none" stroke="none"/>



<defs>
<linearGradient id="paint0_linear_74:603" x1="0.22162354396334366" y1="0.02572839542700933" x2="0.9124106130698979" y2="1.015512512139682">
<stop stop-color="#26E9CF"/>
<stop offset="1" stop-color="#25CDE1"/>
</linearGradient>
</defs>
<g class="currentLayer" style=""><title>Layer 1</title><circle cx="35.31300812959671" cy="33.08369368314743" r="32.87670135498047" stroke="url(#paint0_linear_74:603)" stroke-width="2.04" id="svg_1" class=""/><path d="M42.179511131095886,41.79990258426666 V44.01100258426666 L40.30221113109589,42.79070258426666 L35.30631113109589,33.40390258426666 C35.99471113109588,33.184902584266666 36.62051113109588,32.83030258426666 37.162811131095886,32.361002584266664 L42.179511131095886,41.79990258426666 zM36.96471113109588,28.366372584266664 C36.96471113109588,29.19621258426666 36.63501113109589,29.992072584266662 36.04821113109588,30.578902584266665 C35.461411131095886,31.165602584266665 34.665611131095886,31.49530258426666 33.835711131095884,31.49530258426666 H33.376811131095884 L27.369291131095885,42.79070258426666 L25.491941131095885,44.01100258426666 V41.79990258426666 L31.530811131095888,30.45230258426666 C30.383491131095887,29.16946258426666 30.48779113109589,27.187812584266663 31.781111131095884,26.03011258426666 C32.344311131095886,25.529482584266663 33.074411131095886,25.237442584266663 33.835711131095884,25.237442584266663 V23.151492584266663 C34.112311131095886,23.151492584266663 34.37761113109589,23.261382584266663 34.57321113109589,23.45697258426666 C34.76881113109589,23.652572584266665 34.87871113109588,23.91785258426666 34.87871113109588,24.194472584266663 V25.425182584266665 C36.13031113109589,25.86323258426666 36.96471113109588,27.041792584266663 36.96471113109588,28.366372584266664 zM34.87871113109588,28.366372584266664 C34.87871113109588,28.089752584266662 34.76881113109589,27.824472584266662 34.57321113109589,27.628872584266663 C34.37761113109589,27.433282584266664 34.112311131095886,27.323392584266664 33.835711131095884,27.323392584266664 C33.55911113109589,27.323392584266664 33.293811131095886,27.433282584266664 33.09821113109589,27.628872584266663 C32.90261113109589,27.824472584266662 32.79281113109589,28.089752584266662 32.79281113109589,28.366372584266664 C32.79281113109589,28.64298258426666 32.90261113109589,28.908272584266662 33.09821113109589,29.103862584266665 C33.293811131095886,29.299462584266664 33.55911113109589,29.40934258426666 33.835711131095884,29.40934258426666 C34.112311131095886,29.40934258426666 34.37761113109589,29.299462584266664 34.57321113109589,29.103862584266665 C34.76881113109589,28.908272584266662 34.87871113109588,28.64298258426666 34.87871113109588,28.366372584266664 z" fill="#252160" stroke-width="2.08595" stroke-linecap="round" stroke-linejoin="round" id="svg_2" class=""/></g></svg>